<?xml version="1.0" standalone="no"?>
<!DOCTYPE svg PUBLIC "-//W3C//DTD SVG 20010904//EN"
 "http://www.w3.org/TR/2001/REC-SVG-20010904/DTD/svg10.dtd">
<svg version="1.0" xmlns="http://www.w3.org/2000/svg"
 width="24.000000pt" height="24.000000pt" viewBox="0 0 24.000000 24.000000"
 preserveAspectRatio="xMidYMid meet">

<g transform="translate(0.000000,24.000000) scale(0.100000,-0.100000)"
fill="#000000" stroke="none">
<path d="M105 188 c-2 -7 -13 -38 -25 -68 -11 -30 -20 -61 -20 -67 0 -22 16
-14 28 12 7 15 20 25 32 25 12 0 25 -10 32 -25 12 -26 28 -34 28 -12 0 6 -11
41 -24 77 -23 63 -42 85 -51 58z m25 -63 c0 -8 -4 -15 -10 -15 -5 0 -10 7 -10
15 0 8 5 15 10 15 6 0 10 -7 10 -15z"/>
</g>
</svg>
