<?xml version="1.0" standalone="no"?>
<!DOCTYPE svg PUBLIC "-//W3C//DTD SVG 20010904//EN"
 "http://www.w3.org/TR/2001/REC-SVG-20010904/DTD/svg10.dtd">
<svg version="1.0" xmlns="http://www.w3.org/2000/svg"
 width="24.000000pt" height="24.000000pt" viewBox="0 0 24.000000 24.000000"
 preserveAspectRatio="xMidYMid meet">

<g transform="translate(0.000000,24.000000) scale(0.100000,-0.100000)"
fill="#000000" stroke="none">
<path d="M61 184 c-13 -16 -21 -41 -21 -64 0 -55 31 -90 81 -90 37 0 79 26 79
49 0 13 -34 24 -38 11 -2 -5 -13 -15 -24 -21 -43 -23 -80 58 -42 95 19 20 38
20 54 1 13 -16 50 -21 50 -7 0 4 -7 18 -16 30 -23 34 -95 31 -123 -4z"/>
</g>
</svg>
